<mxfile host="app.diagrams.net" modified="2022-08-08T08:13:47.757Z" agent="5.0 (Macintosh; Intel Mac OS X 10_15_7) AppleWebKit/537.36 (KHTML, like Gecko) Chrome/103.0.0.0 Safari/537.36" etag="AE4Bs09majXCTt7dt5mn" version="20.1.4" type="github">
  <diagram id="ITUva-anC8PVLw7BI0jS" name="第 1 页">
    <mxGraphModel dx="1018" dy="632" grid="1" gridSize="10" guides="1" tooltips="1" connect="1" arrows="1" fold="1" page="1" pageScale="1" pageWidth="827" pageHeight="1169" math="0" shadow="0">
      <root>
        <mxCell id="0" />
        <mxCell id="1" parent="0" />
        <mxCell id="f1BhYvtUlIW0ZYeiiDTI-1" value="Audit Page URL" style="rounded=0;whiteSpace=wrap;html=1;sketch=1;" vertex="1" parent="1">
          <mxGeometry x="110" y="280" width="120" height="60" as="geometry" />
        </mxCell>
        <mxCell id="f1BhYvtUlIW0ZYeiiDTI-2" value="Region&lt;br&gt;CN Ningxia" style="ellipse;shape=cloud;whiteSpace=wrap;html=1;sketch=1;" vertex="1" parent="1">
          <mxGeometry x="294" y="120" width="120" height="80" as="geometry" />
        </mxCell>
        <mxCell id="f1BhYvtUlIW0ZYeiiDTI-3" value="Region&lt;br&gt;CN Beijing" style="ellipse;shape=cloud;whiteSpace=wrap;html=1;sketch=1;" vertex="1" parent="1">
          <mxGeometry x="340" y="210" width="120" height="80" as="geometry" />
        </mxCell>
        <mxCell id="f1BhYvtUlIW0ZYeiiDTI-4" value="Region&lt;br&gt;US Ohio" style="ellipse;shape=cloud;whiteSpace=wrap;html=1;sketch=1;" vertex="1" parent="1">
          <mxGeometry x="300" y="300" width="120" height="80" as="geometry" />
        </mxCell>
        <mxCell id="f1BhYvtUlIW0ZYeiiDTI-5" value="Region&lt;br&gt;JP Tokyo" style="ellipse;shape=cloud;whiteSpace=wrap;html=1;sketch=1;" vertex="1" parent="1">
          <mxGeometry x="390" y="380" width="120" height="80" as="geometry" />
        </mxCell>
        <mxCell id="f1BhYvtUlIW0ZYeiiDTI-6" value="Region&lt;br&gt;..." style="ellipse;shape=cloud;whiteSpace=wrap;html=1;sketch=1;" vertex="1" parent="1">
          <mxGeometry x="280" y="450" width="120" height="80" as="geometry" />
        </mxCell>
        <mxCell id="f1BhYvtUlIW0ZYeiiDTI-7" value="Ctrip&lt;br&gt;Database" style="shape=cylinder3;whiteSpace=wrap;html=1;boundedLbl=1;backgroundOutline=1;size=15;sketch=1;" vertex="1" parent="1">
          <mxGeometry x="600" y="290" width="60" height="80" as="geometry" />
        </mxCell>
        <mxCell id="f1BhYvtUlIW0ZYeiiDTI-8" value="Ctrip AWS LH" style="rounded=0;whiteSpace=wrap;html=1;sketch=1;" vertex="1" parent="1">
          <mxGeometry x="750" y="300" width="120" height="60" as="geometry" />
        </mxCell>
        <mxCell id="f1BhYvtUlIW0ZYeiiDTI-10" value="" style="endArrow=classic;html=1;sketch=1;curved=1;" edge="1" parent="1">
          <mxGeometry width="50" height="50" relative="1" as="geometry">
            <mxPoint x="240" y="270" as="sourcePoint" />
            <mxPoint x="290" y="180" as="targetPoint" />
            <Array as="points">
              <mxPoint x="260" y="220" />
            </Array>
          </mxGeometry>
        </mxCell>
        <mxCell id="f1BhYvtUlIW0ZYeiiDTI-11" value="" style="endArrow=classic;html=1;sketch=1;curved=1;" edge="1" parent="1" target="f1BhYvtUlIW0ZYeiiDTI-3">
          <mxGeometry width="50" height="50" relative="1" as="geometry">
            <mxPoint x="240" y="290" as="sourcePoint" />
            <mxPoint x="300" y="190" as="targetPoint" />
            <Array as="points">
              <mxPoint x="280" y="260" />
            </Array>
          </mxGeometry>
        </mxCell>
        <mxCell id="f1BhYvtUlIW0ZYeiiDTI-13" value="" style="endArrow=classic;html=1;sketch=1;curved=1;" edge="1" parent="1" target="f1BhYvtUlIW0ZYeiiDTI-4">
          <mxGeometry width="50" height="50" relative="1" as="geometry">
            <mxPoint x="240" y="310" as="sourcePoint" />
            <mxPoint x="350.4633273971799" y="264.9613893835683" as="targetPoint" />
            <Array as="points">
              <mxPoint x="280" y="310" />
            </Array>
          </mxGeometry>
        </mxCell>
        <mxCell id="f1BhYvtUlIW0ZYeiiDTI-14" value="" style="endArrow=classic;html=1;sketch=1;curved=1;" edge="1" parent="1">
          <mxGeometry width="50" height="50" relative="1" as="geometry">
            <mxPoint x="240" y="330" as="sourcePoint" />
            <mxPoint x="380" y="420" as="targetPoint" />
            <Array as="points">
              <mxPoint x="310" y="380" />
            </Array>
          </mxGeometry>
        </mxCell>
        <mxCell id="f1BhYvtUlIW0ZYeiiDTI-15" value="" style="endArrow=classic;html=1;sketch=1;curved=1;" edge="1" parent="1" target="f1BhYvtUlIW0ZYeiiDTI-6">
          <mxGeometry width="50" height="50" relative="1" as="geometry">
            <mxPoint x="240" y="360" as="sourcePoint" />
            <mxPoint x="390" y="430" as="targetPoint" />
            <Array as="points">
              <mxPoint x="270" y="430" />
            </Array>
          </mxGeometry>
        </mxCell>
        <mxCell id="f1BhYvtUlIW0ZYeiiDTI-16" value="" style="endArrow=classic;html=1;sketch=1;curved=1;" edge="1" parent="1">
          <mxGeometry width="50" height="50" relative="1" as="geometry">
            <mxPoint x="420" y="170" as="sourcePoint" />
            <mxPoint x="580" y="280" as="targetPoint" />
            <Array as="points">
              <mxPoint x="520" y="230" />
            </Array>
          </mxGeometry>
        </mxCell>
        <mxCell id="f1BhYvtUlIW0ZYeiiDTI-18" value="" style="endArrow=classic;html=1;sketch=1;curved=1;" edge="1" parent="1">
          <mxGeometry width="50" height="50" relative="1" as="geometry">
            <mxPoint x="470" y="270" as="sourcePoint" />
            <mxPoint x="570" y="300" as="targetPoint" />
            <Array as="points" />
          </mxGeometry>
        </mxCell>
        <mxCell id="f1BhYvtUlIW0ZYeiiDTI-19" value="" style="endArrow=classic;html=1;sketch=1;curved=1;" edge="1" parent="1">
          <mxGeometry width="50" height="50" relative="1" as="geometry">
            <mxPoint x="430" y="340" as="sourcePoint" />
            <mxPoint x="570" y="320" as="targetPoint" />
            <Array as="points" />
          </mxGeometry>
        </mxCell>
        <mxCell id="f1BhYvtUlIW0ZYeiiDTI-20" value="" style="endArrow=classic;html=1;sketch=1;curved=1;" edge="1" parent="1" source="f1BhYvtUlIW0ZYeiiDTI-5">
          <mxGeometry width="50" height="50" relative="1" as="geometry">
            <mxPoint x="480" y="370" as="sourcePoint" />
            <mxPoint x="570" y="350" as="targetPoint" />
            <Array as="points">
              <mxPoint x="540" y="380" />
            </Array>
          </mxGeometry>
        </mxCell>
        <mxCell id="f1BhYvtUlIW0ZYeiiDTI-21" value="" style="endArrow=classic;html=1;sketch=1;curved=1;" edge="1" parent="1">
          <mxGeometry width="50" height="50" relative="1" as="geometry">
            <mxPoint x="440" y="500" as="sourcePoint" />
            <mxPoint x="600" y="390" as="targetPoint" />
            <Array as="points">
              <mxPoint x="530" y="470" />
            </Array>
          </mxGeometry>
        </mxCell>
        <mxCell id="f1BhYvtUlIW0ZYeiiDTI-22" value="" style="endArrow=classic;html=1;sketch=1;curved=1;entryX=0;entryY=0.5;entryDx=0;entryDy=0;exitX=1;exitY=0.5;exitDx=0;exitDy=0;exitPerimeter=0;" edge="1" parent="1" source="f1BhYvtUlIW0ZYeiiDTI-7" target="f1BhYvtUlIW0ZYeiiDTI-8">
          <mxGeometry width="50" height="50" relative="1" as="geometry">
            <mxPoint x="670" y="340" as="sourcePoint" />
            <mxPoint x="590" y="290" as="targetPoint" />
            <Array as="points" />
          </mxGeometry>
        </mxCell>
      </root>
    </mxGraphModel>
  </diagram>
</mxfile>
